<svg width="33" height="25" viewBox="0 0 33 25" fill="none" xmlns="http://www.w3.org/2000/svg">
<g clip-path="url(#clip0)">
<path d="M30.7776 24.9479H2.08168C0.969052 24.9479 0.0321961 24.0401 0.0321961 22.8981V2.16693C0.0320672 1.05417 0.93967 0.117188 2.08168 0.117188H30.7776C31.8902 0.117188 32.8273 1.02492 32.8273 2.16693V22.8981C32.8273 24.0401 31.9196 24.9479 30.7776 24.9479Z" fill="#E3E3E3"/>
<path opacity="0.1" d="M4.13143 24.9477L16.4004 15.0798L16.4883 14.5527L3.83865 5.44629L3.80927 24.5085L4.13143 24.9477Z" fill="#231F20"/>
<path d="M2.08169 24.948C0.939677 24.948 0.032074 24.0403 0.032074 22.8982V2.13768C0.032074 0.995797 0.939677 0.790771 2.08169 0.790771C3.2237 0.790771 4.13143 1.02505 4.13143 2.13768V24.948H2.08169Z" fill="#D54B3D"/>
<path d="M2.08168 1.08355C3.54573 1.08355 3.83864 1.52286 3.83864 2.13768V24.6552H2.08168C1.11544 24.6552 0.324851 23.8646 0.324851 22.8982V2.13768C0.324851 1.49348 0.617634 1.08355 2.08168 1.08355ZM2.08168 0.790771C0.93967 0.790771 0.032196 1.02505 0.032196 2.13768V22.8984C0.032196 24.0404 0.939799 24.9481 2.08181 24.9481H4.13142V2.13768C4.13142 0.995797 3.22369 0.790771 2.08168 0.790771Z" fill="#D72B27"/>
<path d="M30.7776 24.948H28.7278V2.07917C28.7278 0.937163 29.6356 0.790771 30.7776 0.790771C31.9196 0.790771 32.8273 0.937163 32.8273 2.07917V22.9276C32.8273 24.0403 31.9196 24.948 30.7776 24.948Z" fill="#D54B3D"/>
<path d="M30.7776 1.08355C32.0952 1.08355 32.5344 1.34709 32.5344 2.07917V22.9276C32.5344 23.8939 31.7438 24.6845 30.7776 24.6845H29.0206V2.07917C29.0206 1.31783 29.4599 1.08355 30.7776 1.08355ZM30.7776 0.790771C29.6356 0.790771 28.7278 0.937163 28.7278 2.07917V24.9774H30.7776C31.9196 24.9774 32.8273 24.0695 32.8273 22.9276V2.07917C32.8273 0.937163 31.9196 0.790771 30.7776 0.790771Z" fill="#D72B27"/>
<path d="M21.9931 24.9478L0.203583 2.989L1.34972 3.45511L16.5175 14.3771L32.8273 2.41748V22.9274C32.8273 24.04 31.9196 24.9478 30.7775 24.9478H21.9931Z" fill="url(#paint0_linear)"/>
<path d="M16.4004 15.0799L0.910451 3.83583C0.00271928 3.16238 -0.260812 1.87397 0.412642 0.966243C1.08635 0.0585106 2.40388 -0.146386 3.34086 0.527067L16.4298 10.0436L29.6062 0.409799C30.5139 -0.263654 31.8023 -0.0586286 32.4758 0.878356C33.1492 1.78609 32.9443 3.07449 32.0072 3.74794L16.4003 15.0798L16.4004 15.0799Z" fill="#D54B3D"/>
<path d="M30.7775 0.292784C31.3339 0.292784 31.8609 0.556314 32.2123 1.02474C32.7687 1.81546 32.593 2.89884 31.8317 3.48454L16.4004 14.7286L1.08618 3.60168C0.295589 3.01598 0.0905632 1.90322 0.646878 1.14201C0.969043 0.702706 1.52536 0.410052 2.11092 0.410052C2.49159 0.410052 2.87226 0.527062 3.16505 0.76134L16.2247 10.2485L16.4004 10.3657L16.576 10.2485L29.7234 0.614948C30.0456 0.410052 30.3969 0.292784 30.7775 0.292784ZM30.7775 0C30.3676 0 29.9283 0.117139 29.577 0.38067L16.4004 10.0142L3.31144 0.497809C2.96028 0.234278 2.5211 0.117139 2.0818 0.117139C1.4376 0.117139 0.793398 0.409923 0.383476 0.966366C-0.260725 1.87397 0.00280548 3.16237 0.910537 3.83582L16.4005 15.1093L31.9781 3.74807C32.8858 3.07461 33.0908 1.81546 32.4466 0.878479C32.0367 0.292783 31.4217 0 30.7775 0Z" fill="#D72B27"/>
</g>
<defs>
<linearGradient id="paint0_linear" x1="0.204888" y1="13.6822" x2="32.8377" y2="13.6822" gradientUnits="userSpaceOnUse">
<stop stop-opacity="0.1"/>
<stop offset="1" stop-opacity="0.2"/>
</linearGradient>
<clipPath id="clip0">
<rect width="32.9897" height="25" fill="white"/>
</clipPath>
</defs>
</svg>
