<svg width="55" height="55" viewBox="0 0 55 55" fill="none" xmlns="http://www.w3.org/2000/svg">
<path d="M27.5 0C12.3121 0 0 12.3121 0 27.5C0 42.688 12.3121 55 27.5 55C42.688 55 55 42.688 55 27.5C55 12.3121 42.688 0 27.5 0Z" fill="#40B3E0"/>
<path d="M40.8811 15.8189L35.9692 40.5837C35.9692 40.5837 35.2823 42.3011 33.3932 41.4768L22.0585 32.7868L17.9369 30.7948L10.9987 28.459C10.9987 28.459 9.93397 28.0813 9.83085 27.2569C9.72772 26.4326 11.0331 25.9861 11.0331 25.9861L38.6139 15.1666C38.6139 15.1666 40.8809 14.1706 40.8809 15.8193" fill="white"/>
<path d="M21.1875 40.3054C21.1875 40.3054 20.8566 40.2745 20.4441 38.9691C20.0323 37.6639 17.9369 30.7945 17.9369 30.7945L34.5954 20.2156C34.5954 20.2156 35.5573 19.6316 35.5229 20.2156C35.5229 20.2156 35.6946 20.3187 35.1792 20.7995C34.6642 21.2806 22.093 32.5807 22.093 32.5807" fill="#D2E5F1"/>
<path d="M26.4046 36.1186L21.9214 40.2062C21.9214 40.2062 21.5708 40.4722 21.1875 40.3055L22.046 32.7129" fill="#B5CFE4"/>
</svg>
