<svg width="55" height="55" viewBox="0 0 55 55" fill="none" xmlns="http://www.w3.org/2000/svg">
<path d="M0 27.5C0 42.6878 12.3122 55 27.5 55C42.6878 55 55 42.6878 55 27.5C55 12.3122 42.6878 0 27.5 0C12.3122 0 0 12.3122 0 27.5Z" fill="#7D3DAF"/>
<path d="M44.8945 17.7288L44.8836 17.6853C44.005 14.1336 40.0441 10.3223 36.4067 9.52943L36.3656 9.52098C30.4822 8.39861 24.5168 8.39861 18.6346 9.52098L18.5923 9.52943C14.9561 10.3223 10.9952 14.1336 10.1154 17.6853L10.1057 17.7288C9.01957 22.6889 9.01957 27.7191 10.1057 32.6793L10.1154 32.7227C10.6721 34.9703 12.4627 37.321 14.624 38.9452C16.5 40.355 18.1253 42.3771 18.1253 44.7238V44.7238C18.1253 46.1587 19.874 46.8635 20.8684 45.828L23.0717 43.5378C24.2231 42.3409 25.8393 41.7284 27.5001 41.7284V41.7284C30.4617 41.7284 33.4245 41.4484 36.3656 40.8872L36.4067 40.8787C40.0441 40.0858 44.005 36.2746 44.8836 32.7228L44.8945 32.6794C45.9806 27.7191 45.9806 22.6889 44.8945 17.7288ZM41.7156 31.96C41.1291 34.2771 38.1216 37.1579 35.732 37.6901C32.6038 38.285 29.4507 38.5393 26.3008 38.452C26.2382 38.4503 26.178 38.4746 26.1343 38.5195C25.7024 38.9628 23.3671 41.3601 23.2096 41.5217C23.2037 41.5278 23.1983 41.5334 23.1924 41.5394L20.0816 44.7321C19.8535 44.9699 19.4528 44.8081 19.4528 44.4799V37.9119C19.4528 37.8034 19.3753 37.7112 19.2688 37.6904C19.2682 37.6902 19.2676 37.6901 19.2669 37.69C16.8774 37.1578 13.8711 34.277 13.2834 31.9599C12.3058 27.4764 12.3058 22.9314 13.2834 18.4479C13.8711 16.1308 16.8774 13.25 19.2669 12.7178C24.7304 11.6787 30.2698 11.6787 35.732 12.7178C38.1228 13.25 41.1291 16.1308 41.7156 18.4479C42.6942 22.9315 42.6942 27.4765 41.7156 31.96Z" fill="white"/>
<path d="M32.6981 34.9919C32.3307 34.8804 31.9806 34.8054 31.6555 34.6705C28.2864 33.2727 25.1858 31.4695 22.7297 28.7052C21.333 27.1332 20.2399 25.3586 19.3158 23.4804C18.8776 22.5898 18.5083 21.6643 18.1319 20.7448C17.7886 19.9062 18.2942 19.04 18.8265 18.4082C19.326 17.8152 19.9688 17.3615 20.6649 17.027C21.2082 16.766 21.7442 16.9165 22.141 17.377C22.9989 18.3727 23.7868 19.4193 24.4249 20.5734C24.8172 21.2833 24.7096 22.151 23.9985 22.6341C23.8257 22.7515 23.6682 22.8893 23.5072 23.022C23.366 23.1382 23.2331 23.2556 23.1363 23.413C22.9594 23.7009 22.9509 24.0406 23.0649 24.3536C23.9418 26.7635 25.4198 28.6373 27.8453 29.6466C28.2335 29.8081 28.6233 29.9961 29.0704 29.944C29.8193 29.8565 30.0617 29.0351 30.5865 28.606C31.0994 28.1866 31.7548 28.181 32.3073 28.5306C32.8599 28.8804 33.3957 29.2558 33.9281 29.6353C34.4508 30.0077 34.9712 30.3721 35.4533 30.7966C35.9169 31.2049 36.0766 31.7405 35.8155 32.2946C35.3376 33.3093 34.6422 34.1535 33.6391 34.6924C33.3558 34.8443 33.0175 34.8935 32.6981 34.9919C33.0175 34.8935 32.3307 34.8803 32.6981 34.9919Z" fill="white"/>
<path d="M27.5093 15.8666C31.9161 15.99 35.5356 18.9146 36.3112 23.2713C36.4433 24.0137 36.4904 24.7727 36.5492 25.5261C36.5739 25.843 36.3945 26.1441 36.0524 26.1482C35.6992 26.1525 35.5403 25.8569 35.5173 25.5401C35.472 24.913 35.4405 24.2832 35.354 23.6613C34.8979 20.3785 32.2802 17.6626 29.0126 17.0798C28.521 16.9921 28.0177 16.969 27.5196 16.9168C27.2048 16.8837 26.7924 16.8646 26.7226 16.4733C26.6641 16.1451 26.9411 15.8838 27.2535 15.8671C27.3385 15.8624 27.4239 15.8662 27.5093 15.8666C27.4239 15.8662 31.9161 15.99 27.5093 15.8666Z" fill="white"/>
<path d="M34.2063 24.5482C34.1991 24.6032 34.1952 24.7326 34.163 24.8545C34.046 25.2969 33.3753 25.3523 33.2208 24.9058C33.175 24.7732 33.1682 24.6225 33.1679 24.4799C33.1664 23.5465 32.9635 22.6141 32.4928 21.802C32.009 20.9673 31.2698 20.2657 30.4028 19.8411C29.8785 19.5844 29.3116 19.4248 28.737 19.3297C28.4858 19.2882 28.232 19.263 27.9797 19.2279C27.6739 19.1854 27.5106 18.9905 27.5251 18.6891C27.5386 18.4067 27.7449 18.2036 28.0527 18.221C29.064 18.2785 30.0409 18.497 30.94 18.9731C32.7683 19.9414 33.8127 21.4697 34.1176 23.5105C34.1314 23.603 34.1536 23.6946 34.1606 23.7874C34.1778 24.0166 34.1887 24.246 34.2063 24.5482C34.1887 24.246 34.1991 24.6032 34.2063 24.5482Z" fill="white"/>
<path d="M31.4654 24.4416C31.0967 24.4482 30.8994 24.2441 30.8613 23.9061C30.8349 23.6704 30.814 23.4316 30.7578 23.2023C30.647 22.7507 30.407 22.3321 30.027 22.0554C29.8477 21.9247 29.6445 21.8295 29.4316 21.768C29.1611 21.69 28.8803 21.7114 28.6104 21.6453C28.3174 21.5735 28.1553 21.3362 28.2014 21.0613C28.2433 20.8111 28.4867 20.6159 28.7601 20.6357C30.4686 20.759 31.6897 21.6423 31.864 23.6536C31.8763 23.7956 31.8908 23.9456 31.8593 24.0813C31.8053 24.3138 31.6332 24.4302 31.4654 24.4416C31.6332 24.4302 31.0967 24.4482 31.4654 24.4416Z" fill="white"/>
</svg>
