<svg width="55" height="55" viewBox="0 0 55 55" fill="none" xmlns="http://www.w3.org/2000/svg">
<path d="M2.53107 52.3332L6.04806 39.5569C3.87938 35.8094 2.73856 31.5596 2.74011 27.2341C2.74011 13.6371 13.857 2.57593 27.4944 2.57593C34.1228 2.57593 40.333 5.1483 45.0059 9.80297C49.6787 14.4579 52.2491 20.6562 52.2491 27.2463C52.2491 40.8431 41.1323 51.9043 27.4946 51.9043H27.4824C23.338 51.9043 19.2676 50.8631 15.6522 48.9033L2.53107 52.3334V52.3332Z" fill="url(#paint0_linear)"/>
<path d="M1.63342 53.2274L5.27331 39.9981C3.03528 36.1273 1.84225 31.7297 1.85471 27.2342C1.85471 13.1474 13.365 1.69409 27.5071 1.69409C34.3687 1.69409 40.8123 4.35207 45.6455 9.17837C50.4904 14.0047 53.159 20.4234 53.1467 27.2464C53.1467 41.3333 41.6365 52.7865 27.4944 52.7865H27.4823C23.1989 52.7849 18.984 51.7152 15.2219 49.6751L1.63342 53.2276V53.2274ZM15.8612 45.0448L16.636 45.5103C19.9072 47.4457 23.6577 48.4625 27.4823 48.4747H27.4946C39.2384 48.4747 48.8058 38.9569 48.8058 27.2464C48.8058 21.575 46.5923 16.2464 42.571 12.2286C38.5498 8.21084 33.1882 6.00592 27.4946 6.00592C15.7383 6.00592 6.17114 15.5237 6.17114 27.2342C6.17114 31.2398 7.29004 35.1474 9.42989 38.528L9.93412 39.3366L7.78204 47.1639L15.8612 45.0448Z" fill="white"/>
<path d="M21.0878 16.5403C20.608 15.4745 20.1038 15.4499 19.649 15.4377C19.2801 15.4255 18.8498 15.4255 18.4192 15.4255C17.9889 15.4255 17.3001 15.5848 16.7099 16.2216C16.1195 16.8587 14.4717 18.4022 14.4717 21.5504C14.4717 24.6861 16.7714 27.7239 17.0911 28.1526C17.4107 28.5815 21.5304 35.2328 28.0356 37.793C33.4465 39.9245 34.5533 39.4956 35.7214 39.3854C36.902 39.2752 39.5091 37.842 40.0501 36.3476C40.5788 34.8532 40.5789 33.5792 40.419 33.3097C40.2592 33.0401 39.8288 32.8811 39.1892 32.5624C38.5499 32.244 35.4018 30.7006 34.8116 30.4801C34.2212 30.2597 33.7909 30.1617 33.3728 30.7986C32.9422 31.4355 31.7127 32.8687 31.3436 33.2975C30.9747 33.7262 30.5936 33.7752 29.954 33.4568C29.3146 33.1383 27.2487 32.4644 24.8016 30.2841C22.8955 28.5937 21.6043 26.4989 21.2352 25.8621C20.8663 25.2252 21.1984 24.8819 21.5181 24.5637C21.8009 24.2818 22.1575 23.8164 22.4774 23.4489C22.7971 23.0815 22.9077 22.812 23.1168 22.3831C23.3258 21.9545 23.2274 21.587 23.0676 21.2686C22.9077 20.9499 21.6535 17.8019 21.0878 16.5403Z" fill="white"/>
<defs>
<linearGradient id="paint0_linear" x1="27.3891" y1="52.3299" x2="27.3891" y2="2.57294" gradientUnits="userSpaceOnUse">
<stop stop-color="#20B038"/>
<stop offset="1" stop-color="#60D66A"/>
</linearGradient>
</defs>
</svg>
